<?xml version="1.0" encoding="utf-8" ?>
<svg xmlns="http://www.w3.org/2000/svg" xmlns:ev="http://www.w3.org/2001/xml-events" xmlns:xlink="http://www.w3.org/1999/xlink" baseProfile="full" height="645.0781880235379" version="1.1" viewBox="-137.89863089854157 -631.282824737719 557.5945235941663 645.0781880235379" width="557.5945235941663">
  <defs/>
  <path d="M 99.86724363777799,-438.6289290879011 L 58.9172155988171,-475.6262242781137 C 38.13611303664142,-451.94492253157097 51.8431264600716,-431.2377861708535 46.960800695302176,-409.47147129742416 L 38.860110843823016,-371.1038901453256 L 99.86724363777799,-438.6289290879011" fill="rgb(227,175,186)" stroke="rgb(51,51,51)" stroke-width="0.75"/>
  <path d="M -99.86724363777796,-438.6289290879011 L -38.860110843822966,-371.10389014532564 L -46.96080069530213,-409.47147129742416 C -51.843126460071566,-431.2377861708535 -38.136113036641376,-451.94492253157097 -58.91721559881708,-475.6262242781137 L -99.86724363777796,-438.6289290879011" fill="rgb(227,175,186)" stroke="rgb(51,51,51)" stroke-width="0.75"/>
  <path d="M 135.89863089854157,-442.5560049960032 L 104.31930929826319,-434.60660247824745 L 80.03210016647452,-407.7245861086304 L 75.3180564638883,-375.50309723717663 L 135.89863089854157,-442.5560049960032" fill="rgb(227,175,186)" stroke="rgb(51,51,51)" stroke-width="0.75"/>
  <path d="M -135.89863089854157,-442.5560049960032 L -75.31805646388828,-375.50309723717663 L -80.0321001664745,-407.7245861086304 L -104.31930929826319,-434.6066024782475 L -135.89863089854157,-442.5560049960032" fill="rgb(227,175,186)" stroke="rgb(51,51,51)" stroke-width="0.75"/>
  <path d="M 98.58286993961912,4.0570432858189065 Q 96.54139585603397,-188.4399527740526 96.54143496980956,-252.6047385832581 Q 96.54143448148355,-291.2979329317924 96.04208496980957,-329.9879385832581 L 48.80625506906591,-329.9879385832581 L 22.117284969809567,-329.9879385832581 L 22.117284969809567,-287.42717858325807 Q 22.117267803610922,-221.75362612920574 3.511247469809568,-221.75363858325812 Q 8.89949620125197,-154.08257501400408 7.469812500000025,4.0570432858189065 L 98.58286993961912,4.0570432858189065" fill="rgb(227,175,186)" stroke="rgb(51,51,51)" stroke-width="0.75"/>
  <path d="M -98.58286993961912,4.0570432858189065 L -7.469812500000032,4.0570432858189065 Q -8.899496201251978,-154.08257501400408 -3.5112474698095753,-221.75363858325812 Q -22.117267803610943,-221.75362612920574 -22.117284969809575,-287.42717858325807 L -22.117284969809575,-329.9879385832581 L -49.32167882661402,-329.9879385832581 L -96.04208496980958,-329.9879385832581 Q -96.54143448148356,-291.2979329317924 -96.54143496980957,-252.6047385832581 Q -96.541395856034,-188.4399527740526 -98.58286993961912,4.0570432858189065" fill="rgb(227,175,186)" stroke="rgb(51,51,51)" stroke-width="0.75"/>
  <path d="M 0.0,-335.1209901106654 L 27.040950398520387,-335.1209901106654 L 29.655550398520383,-378.57531233421525 L 32.27015039852039,-335.1209901106654 L 79.154,-335.1209901106654 L 81.7686,-383.4908900272232 L 41.204232916851694,-389.75864002722324 L 81.7686,-396.0263900272232 L 77.47922108357886,-409.82108226411566 C 52.88993004863416,-414.0771279529624 55.290831496217116,-434.70158722917097 56.382345908855356,-468.0208422641157 L 50.00747810039458,-470.4176441318518 A 52.25229480110233,52.25229480110233 0.0 0,1 0.0,-403.01429504334556 L 0.0,-335.1209901106654" fill="rgb(227,175,186)" stroke="rgb(51,51,51)" stroke-width="0.75"/>
  <path d="M 0.0,-335.1209901106654 L 0.0,-403.01429504334556 A 52.25229480110233,52.25229480110233 0.0 0,1 -50.00747810039458,-470.4176441318518 L -56.38234590885535,-468.0208422641157 C -55.29083149621711,-434.70158722917097 -52.88993004863417,-414.0771279529624 -77.47922108357886,-409.82108226411566 L -81.7686,-396.0263900272232 L -41.204232916851694,-389.75864002722324 L -81.7686,-383.4908900272232 L -79.154,-335.1209901106654 L -32.270150398520386,-335.1209901106654 L -29.655550398520383,-378.57531233421525 L -27.040950398520387,-335.1209901106654 L 0.0,-335.1209901106654" fill="rgb(227,175,186)" stroke="rgb(51,51,51)" stroke-width="0.75"/>
  <path d="M 281.79726179708314,-356.0532840010364 L 281.79726179708314,-461.6241093357799 A 130.13431857691972,130.13431857691972 0.0 0,0 331.80473989747776,-471.61604153088274 L 338.5767617970831,-469.06991715760876 C 336.8387597970831,-436.0092571576088 334.04996579708313,-415.57874415760875 358.3806617970831,-410.87015715760873 L 358.3806617970831,-397.2247870558509 L 356.0126867970831,-348.8548870558509 Q 341.17460088163176,-351.8349751192757 326.26698528769805,-353.63519379637523 L 327.1420572119218,-391.47189589234154 L 320.37746355285867,-354.23452153539705 Q 313.8592495901048,-354.8504639878272 307.33116395397684,-355.25781124572336 L 306.68557599117156,-397.30487748825493 L 301.42020864940105,-355.58379804179555 Q 291.61984433344185,-356.05328410383 281.79726179708314,-356.0532840010364" fill="rgb(227,175,186)" stroke="rgb(51,51,51)" stroke-width="0.75"/>
  <path d="M 281.79726179708314,-356.0532840010364 Q 271.97467926072443,-356.05328410383 262.17431494476523,-355.58379804179555 L 256.9089476029948,-397.30487748825493 L 256.26335964018944,-355.25781124572336 Q 249.73527400406147,-354.8504639878272 243.2170600413076,-354.23452153539705 L 236.4524663822445,-391.47189589234154 L 237.32753830646826,-353.63519379637523 Q 222.4199227125345,-351.8349751192757 207.58183679708313,-348.8548870558509 L 205.21386179708315,-397.2247870558509 L 205.21386179708315,-410.87015715760873 C 229.54455779708314,-415.57874415760875 226.75576379708315,-436.0092571576088 225.01776179708315,-469.06991715760876 L 231.78978369668852,-471.61604153088274 A 130.13431857691972,130.13431857691972 0.0 0,0 281.79726179708314,-461.6241093357799 L 281.79726179708314,-356.0532840010364" fill="rgb(227,175,186)" stroke="rgb(51,51,51)" stroke-width="0.75"/>
  <path d="M 389.38013173670225,11.795363285818894 L 287.4686492970831,11.795363285818894 Q 288.898332998333,-146.3442550139948 283.5100842668927,-214.01531858325808 Q 303.81735010557895,-214.0153189279937 303.8173467668927,-283.17110258325806 L 303.8173467668927,-329.9879385832581 L 323.4478090889897,-329.9879385832581 L 327.4249277854909,-262.0069607010255 L 331.4020464819922,-329.9879385832581 L 344.48902170885407,-329.9879385832581 L 348.46614040535536,-268.82962355820223 L 352.4432591018566,-329.9879385832581 L 382.1013715528978,-329.9879385832581 Q 387.3386740500285,-287.50922334327333 387.33869676689267,-244.8664185832581 Q 387.33865765311714,-180.70163277405257 389.38013173670225,11.795363285818894" fill="rgb(227,175,186)" stroke="rgb(51,51,51)" stroke-width="0.75"/>
  <path d="M 174.21439185746402,11.795363285818894 Q 176.25586594104914,-180.70163277405263 176.25582682727358,-244.8664185832581 Q 176.2558495441378,-287.50922334327333 181.4931520412685,-329.9879385832581 L 211.15126449230965,-329.9879385832581 L 215.12838318881091,-268.82962355820223 L 219.1055018853122,-329.9879385832581 L 232.19247711217406,-329.9879385832581 L 236.16959580867533,-262.0069607010255 L 240.1467145051766,-329.9879385832581 L 259.7771768272736,-329.9879385832581 L 259.7771768272736,-283.17110258325806 Q 259.7771734885873,-214.0153189279937 280.08443932727357,-214.01531858325808 Q 274.6961905958333,-146.3442550139948 276.12587429708316,11.795363285818894 L 174.21439185746402,11.795363285818894" fill="rgb(227,175,186)" stroke="rgb(51,51,51)" stroke-width="0.75"/>
  <path d="M 333.8122179978723,-508.23543560979454 Q 346.19972464414354,-634.8714194662713 273.80324427739885,-629.0248068550945 L 223.79576617700423,-629.0248068550945 L 231.88052990545344,-448.2371556309141 C 273.4961907054734,-448.9944549760877 242.1551015561023,-517.4611776989286 283.74805329811204,-518.238694284031 C 305.13728162979254,-518.1098517016407 312.4458492626112,-508.37920414937696 333.8122179978723,-508.23543560979454" fill="rgb(227,175,186)" stroke="rgb(51,51,51)" stroke-width="0.75"/>
  <path d="M 229.78230559629395,-508.23543560979454 C 251.14867433155504,-508.37920414937696 258.45724196437374,-518.1098517016407 279.84647029605424,-518.238694284031 C 321.439422038064,-517.4611776989286 290.0983328886929,-448.9944549760877 331.71399368871283,-448.2371556309141 L 339.79875741716205,-629.0248068550945 L 289.79127931676743,-629.0248068550945 Q 217.39479895002273,-634.8714194662713 229.78230559629395,-508.23543560979454" fill="rgb(227,175,186)" stroke="rgb(51,51,51)" stroke-width="0.75"/>
  <path d="M 381.6645054348611,-438.6289290879011 L 321.35330604589586,-371.874175981116 L 329.19475119971077,-409.954815139652 C 334.08706477777395,-431.61028925362956 319.92853127014786,-452.16803347928425 340.71447739590025,-475.6262242781137 L 381.6645054348611,-438.6289290879011" fill="rgb(227,175,186)" stroke="rgb(51,51,51)" stroke-width="0.75"/>
  <path d="M 181.93001815930518,-438.6289290879011 L 222.88004619826606,-475.6262242781137 C 243.66599232401842,-452.16803347928425 229.5074588163924,-431.6102892536296 234.39977239445557,-409.954815139652 L 242.24121754827047,-371.874175981116 L 181.93001815930518,-438.6289290879011" fill="rgb(227,175,186)" stroke="rgb(51,51,51)" stroke-width="0.75"/>
  <path d="M 417.6958926956247,-442.5560049960032 L 357.11531826097143,-375.50309723717663 L 361.82936196355763,-407.7245861086304 L 386.11657109534633,-434.60660247824745 L 417.6958926956247,-442.5560049960032" fill="rgb(227,175,186)" stroke="rgb(51,51,51)" stroke-width="0.75"/>
  <path d="M 145.89863089854157,-442.5560049960032 L 177.47795249881995,-434.6066024782475 L 201.76516163060865,-407.7245861086304 L 206.47920533319484,-375.50309723717663 L 145.89863089854157,-442.5560049960032" fill="rgb(227,175,186)" stroke="rgb(51,51,51)" stroke-width="0.75"/>
</svg>
