<?xml version="1.0" encoding="utf-8" ?>
<svg xmlns="http://www.w3.org/2000/svg" xmlns:ev="http://www.w3.org/2001/xml-events" xmlns:xlink="http://www.w3.org/1999/xlink" baseProfile="full" height="297.79133673404016" version="1.1" viewBox="-95.93299521749873 -318.92599999999993 431.7319808699949 297.79133673404016" width="431.7319808699949">
  <defs/>
  <path d="M -64.33896495183933,-316.92599999999993 L -69.83795721197777,-282.437770852723 A 439.2861225601389,439.2861225601389 0.0 0,0 -25.264051481514123,-277.6471149384303 A 439.286122559994,439.286122559994 0.0 0,0 -0.6694824759193239,-276.9580792921816 A 439.28612255997655,439.28612255997655 0.0 0,0 23.925086529674502,-277.6471149384306 A 439.2861225601415,439.2861225601415 0.0 0,0 68.49899226013846,-282.437770852723 L 63.0,-316.92599999999993 A 404.3622501288845,404.3622501288845 0.0 0,1 -64.33896495183933,-316.92599999999993" fill="rgb(227,175,186)" stroke="rgb(51,51,51)" stroke-width="0.75"/>
  <path d="M 87.36599043499747,-27.731370307977528 Q 93.93299356406091,-169.56915182506722 93.93299521749873,-216.9086866983443 Q 93.93299482427744,-240.133263241406 88.44166397658856,-262.8757571185219 L 45.2386584361758,-262.8757571185219 L 44.7480766571364,-226.1053732498871 L 44.25749487809699,-262.8757571185219 L 20.55374521749873,-262.8757571185219 L 20.55374521749873,-237.5938683874242 Q 20.553602878584968,-193.00997728893518 2.208932717498726,-193.0099666983443 Q 10.166616185046564,-143.7411011534755 14.775937499999984,-27.731370307977528 L 87.36599043499747,-27.731370307977528" fill="rgb(227,175,186)" stroke="rgb(51,51,51)" stroke-width="0.75"/>
  <path d="M -87.36599043499746,-27.731370307977528 L -14.77593749999997,-27.731370307977528 Q -10.166616185046564,-143.74110115347548 -2.208932717498726,-193.0099666983443 Q -20.55360287858494,-193.00997728893518 -20.553745217498715,-237.5938683874242 L -20.553745217498715,-262.8757571185219 L -44.25749487809699,-262.8757571185219 L -44.74807665713639,-226.1053732498871 L -45.2386584361758,-262.8757571185219 L -88.44166397658856,-262.8757571185219 Q -93.93299482427744,-240.133263241406 -93.93299521749873,-216.9086866983443 Q -93.93299356406092,-169.56915182506722 -87.36599043499746,-27.731370307977528" fill="rgb(227,175,186)" stroke="rgb(51,51,51)" stroke-width="0.75"/>
  <path d="M 327.2319808699949,-23.134663265959773 L 233.64034575765982,-23.134663265959773 Q 229.03102444270638,-139.14439411145776 221.07334097515854,-188.41325965632655 Q 250.01561546316682,-188.41326697991002 250.0157356524962,-235.06567951431444 L 250.0157356524962,-262.8757571185219 L 270.4995106495223,-262.8757571185219 L 273.7188042955236,-222.55304234361464 L 276.938097941525,-262.8757571185219 L 290.5939475531244,-262.8757571185219 L 293.81324119912574,-226.61245413984994 L 297.0325348451271,-262.8757571185219 L 327.758521287495,-262.8757571185219 Q 333.79898521995284,-237.85901385432513 333.7989856524962,-212.31197965632654 Q 333.79898399905835,-164.97244478304947 327.2319808699949,-23.134663265959773" fill="rgb(227,175,186)" stroke="rgb(51,51,51)" stroke-width="0.75"/>
  <path d="M 110.5,-23.134663265959773 Q 103.93299687093653,-164.97244478304947 103.93299521749873,-212.31197965632654 Q 103.93299565004209,-237.85901385432513 109.97345958249991,-262.8757571185219 L 140.69944602486788,-262.8757571185219 L 143.91873967086923,-226.61245413984994 L 147.13803331687058,-262.8757571185219 L 160.79388292846997,-262.8757571185219 L 164.01317657447132,-222.55304234361464 L 167.23247022047266,-262.8757571185219 L 187.71624521749874,-262.8757571185219 L 187.71624521749874,-235.06567951431444 Q 187.71636540682812,-188.41326697991002 216.6586398948364,-188.41325965632655 Q 208.70095642728856,-139.14439411145776 204.09163511233513,-23.134663265959773 L 110.5,-23.134663265959773" fill="rgb(227,175,186)" stroke="rgb(51,51,51)" stroke-width="0.75"/>
  <path d="M 163.39122937880498,-316.92599999999993 A 142.50559831746202,142.50559831746202 0.0 0,0 272.86599043499746,-316.92599999999993 L 286.2804900571373,-284.68118544820334 A 177.4294707486586,177.4294707486586 0.0 0,1 254.6805293099855,-274.8761425143281 A 177.42947074881005,177.42947074881005 0.0 0,1 240.1609079968539,-272.4435729193398 A 177.42947074869633,177.42947074869633 0.0 0,1 218.12860990690126,-271.07032878884036 A 177.42947074869636,177.42947074869636 0.0 0,1 196.09631181694863,-272.4435729193398 A 177.42947074881124,177.42947074881124 0.0 0,1 181.57669050381693,-274.876142514328 A 177.42947074865856,177.42947074865856 0.0 0,1 149.97672975666512,-284.68118544820334 L 163.39122937880498,-316.92599999999993" fill="rgb(227,175,186)" stroke="rgb(51,51,51)" stroke-width="0.75"/>
</svg>
