<?xml version="1.0" encoding="utf-8" ?>
<svg xmlns="http://www.w3.org/2000/svg" xmlns:ev="http://www.w3.org/2001/xml-events" xmlns:xlink="http://www.w3.org/1999/xlink" baseProfile="full" height="184.04350243821534" version="1.1" viewBox="-95.58439857234242 -340.94309914763676 418.3375942893697 184.04350243821534" width="418.3375942893697">
  <defs/>
  <path d="M 71.66879714468485,-163.9210206449286 Q 93.58439787689406,-256.94541391308877 93.58439857234242,-288.7288597925653 Q 93.58439809635865,-314.0105692659886 88.1936225212282,-338.94309914763676 L 46.303941813924546,-338.94309914763676 L 44.72519501777956,-298.8027422444023 L 43.146448221634586,-338.94309914763676 L 19.900648572342433,-338.94309914763676 L 19.900648572342433,-311.32526750234746 Q 19.900674095046092,-260.9576173614296 1.4797110723424325,-260.9576197925653 Q 13.801110289767884,-232.9681059222952 29.39531250000001,-163.9210206449286 L 71.66879714468485,-163.9210206449286" fill="rgb(227,175,186)" stroke="rgb(51,51,51)" stroke-width="0.75"/>
  <path d="M -71.66879714468485,-163.9210206449286 L -29.395312500000003,-163.9210206449286 Q -13.801110289767877,-232.9681059222952 -1.4797110723424254,-260.9576197925653 Q -19.9006740950461,-260.9576173614296 -19.900648572342433,-311.32526750234746 L -19.900648572342433,-338.94309914763676 L -43.146448221634586,-338.94309914763676 L -44.725195017779555,-298.8027422444023 L -46.30394181392454,-338.94309914763676 L -88.1936225212282,-338.94309914763676 Q -93.58439809635865,-314.0105692659886 -93.58439857234242,-288.7288597925653 Q -93.58439787689404,-256.94541391308877 -71.66879714468485,-163.9210206449286" fill="rgb(227,175,186)" stroke="rgb(51,51,51)" stroke-width="0.75"/>
  <path d="M 298.8375942893697,-158.89959670942142 L 243.11668464468485,-158.89959670942142 Q 227.5224824344527,-227.946681986788 215.20108321702727,-255.9361958570581 Q 240.43344218176603,-255.93619633478198 240.43344571702727,-308.56348433781847 L 240.43344571702727,-338.9430991476367 L 259.2985706829744,-338.9430991476367 L 262.48246177603414,-294.8694213232975 L 265.6663528690939,-338.9430991476367 L 278.2431025282026,-338.9430991476367 L 281.42699362126234,-299.30107483672407 L 284.61088471432214,-338.9430991476367 L 314.8233420608016,-338.9430991476367 Q 320.753195193445,-311.51731627718834 320.75319571702727,-283.7074358570581 Q 320.7531950215789,-251.92398997758156 298.8375942893697,-158.89959670942142" fill="rgb(227,175,186)" stroke="rgb(51,51,51)" stroke-width="0.75"/>
  <path d="M 125.49999999999999,-158.89959670942142 Q 103.58439926779079,-251.92398997758158 103.58439857234241,-283.7074358570581 Q 103.58439909592468,-311.51731627718834 109.51425222856804,-338.9430991476367 L 139.72670957504755,-338.9430991476367 L 142.91060066810732,-299.30107483672407 L 146.09449176116706,-338.9430991476367 L 158.67124142027578,-338.9430991476367 L 161.85513251333555,-294.8694213232975 L 165.0390236063953,-338.9430991476367 L 183.90414857234242,-338.9430991476367 L 183.90414857234242,-308.56348433781847 Q 183.90415210760364,-255.93619633478198 209.13651107234242,-255.9361958570581 Q 196.81511185491695,-227.946681986788 181.22090964468484,-158.89959670942142 L 125.49999999999999,-158.89959670942142" fill="rgb(227,175,186)" stroke="rgb(51,51,51)" stroke-width="0.75"/>
</svg>
