<?xml version="1.0" encoding="utf-8" ?>
<svg xmlns="http://www.w3.org/2000/svg" xmlns:ev="http://www.w3.org/2001/xml-events" xmlns:xlink="http://www.w3.org/1999/xlink" baseProfile="full" height="285.8589195684708" version="1.1" viewBox="-101.18437516943587 -339.10627999999997 425.3687503388717 285.8589195684708" width="425.3687503388717">
  <defs/>
  <path d="M -79.97415,-325.27979999999997 L -1.4210854715202004e-14,-325.27979999999997 L 79.97415,-325.27979999999997 L 79.97415,-337.10627999999997 L -79.97415,-337.10627999999997 L -79.97415,-325.27979999999997" fill="rgb(227,175,186)" stroke="rgb(51,51,51)" stroke-width="0.75"/>
  <path d="M 97.5,-60.37641683346283 L 97.5,-258.98923598066335 Q 97.49999973091637,-284.6560136820267 99.18437516943585,-310.2797999999999 L 19.46775000000001,-310.2797999999999 L 19.46775000000001,-282.06998978936485 Q 19.46784308833719,-221.1472055449684 -0.04031249999998465,-221.14723598066337 Q 5.959784816867042,-173.068713314647 5.959687500000015,-60.37641683346283 L 97.5,-60.37641683346283" fill="rgb(227,175,186)" stroke="rgb(51,51,51)" stroke-width="0.75"/>
  <path d="M -97.5,-60.37641683346283 L -5.95968750000003,-60.37641683346283 Q -5.959784816867057,-173.068713314647 0.04031249999997044,-221.14723598066337 Q -19.46784308833722,-221.14720554496836 -19.467749999999995,-282.06998978936485 L -19.467749999999995,-310.2797999999999 L -99.18437516943587,-310.2797999999999 Q -97.49999973091637,-284.6560136820267 -97.5,-258.98923598066335 L -97.5,-60.37641683346283" fill="rgb(227,175,186)" stroke="rgb(51,51,51)" stroke-width="0.75"/>
  <path d="M 322.18437516943584,-55.24736043152916 L 222.89138766943583,-55.24736043152916 Q 222.89148498630286,-167.93965691271333 216.89138766943583,-216.0181795787297 Q 233.43617101443795,-216.01816192843955 233.43612516943583,-279.24900876830134 L 233.43612516943583,-310.2797999999999 L 254.07537515803006,-310.2797999999999 L 257.3149334314164,-265.26051140032666 L 260.5544917048028,-310.2797999999999 L 274.31399128978614,-310.2797999999999 L 277.5535495631725,-269.7870544757276 L 280.7931078365589,-310.2797999999999 L 318.3021092628321,-310.2797999999999 Q 322.18434504210063,-282.13347338472704 322.18437516943584,-253.86017957872974 L 322.18437516943584,-55.24736043152916" fill="rgb(227,175,186)" stroke="rgb(51,51,51)" stroke-width="0.75"/>
  <path d="M 109.18437516943584,-55.24736043152916 L 109.18437516943584,-253.86017957872974 Q 109.18440529677103,-282.13347338472704 113.06664107603956,-310.2797999999999 L 150.5756425023128,-310.2797999999999 L 153.8152007756992,-269.7870544757276 L 157.05475904908556,-310.2797999999999 L 170.81425863406886,-310.2797999999999 L 174.05381690745526,-265.26051140032666 L 177.29337518084162,-310.2797999999999 L 197.93262516943582,-310.2797999999999 L 197.93262516943582,-279.24900876830134 Q 197.93257932443373,-216.01816192843955 214.47736266943585,-216.0181795787297 Q 208.47726535256882,-167.93965691271336 208.47736266943585,-55.24736043152916 L 109.18437516943584,-55.24736043152916" fill="rgb(227,175,186)" stroke="rgb(51,51,51)" stroke-width="0.75"/>
  <path d="M 146.35137516943584,-325.27979999999997 L 146.35137516943584,-337.10627999999997 L 285.0173751694358,-337.10627999999997 L 285.0173751694358,-325.27979999999997 L 248.85143255925465,-325.27979999999997 L 235.58460983902205,-325.27979999999997 L 215.68437516943584,-325.27979999999997 L 195.7841404998496,-325.27979999999997 L 182.51731777961703,-325.27979999999997 L 146.35137516943584,-325.27979999999997" fill="rgb(227,175,186)" stroke="rgb(51,51,51)" stroke-width="0.75"/>
</svg>
