<?xml version="1.0" encoding="utf-8" ?>
<svg xmlns="http://www.w3.org/2000/svg" xmlns:ev="http://www.w3.org/2001/xml-events" xmlns:xlink="http://www.w3.org/1999/xlink" baseProfile="full" height="515.6710054674952" version="1.1" viewBox="-191.25431348227903 -486.83540000000005 940.2396184533914 515.6710054674952" width="940.2396184533914">
  <defs/>
  <path d="M 145.5739279099693,-357.961745625376 L 52.062414324849414,-450.18274004913076 C 30.39258490676184,-427.5999410801532 54.23837469218128,-407.51148910078507 53.23316377736283,-386.9367856627455 L 114.53124442277452,-326.484658040603 L 145.5739279099693,-357.961745625376" fill="rgb(227,175,186)" stroke="rgb(51,51,51)" stroke-width="0.75"/>
  <path d="M -145.5739279099693,-357.961745625376 L -114.53124442277452,-326.484658040603 L -53.23316377736283,-386.9367856627455 C -54.23837469218128,-407.511489100785 -30.39258490676184,-427.5999410801532 -52.062414324849414,-450.18274004913076 L -145.5739279099693,-357.961745625376" fill="rgb(227,175,186)" stroke="rgb(51,51,51)" stroke-width="0.75"/>
  <path d="M 189.254313482279,-314.8841775286445 L 149.8459444779044,-353.7486856396544 L 132.49456225320972,-336.154492205028 L 171.90293125758436,-297.2899840940181 L 189.254313482279,-314.8841775286445" fill="rgb(227,175,186)" stroke="rgb(51,51,51)" stroke-width="0.75"/>
  <path d="M -189.25431348227903,-314.8841775286445 L -171.90293125758438,-297.2899840940181 L -132.49456225320975,-336.154492205028 L -149.84594447790442,-353.7486856396544 L -189.25431348227903,-314.8841775286445" fill="rgb(227,175,186)" stroke="rgb(51,51,51)" stroke-width="0.75"/>
  <path d="M -68.90841746850417,-314.33375625230826 L -70.40250334918063,-299.9171905700952 A 668.8513869580154,668.8513869580154 0.0 0,0 -41.88032555033514,-297.5767619560518 A 668.8513869580211,668.8513869580211 0.0 0,0 -13.284139090716579,-296.4585703565791 A 668.851386958014,668.851386958014 0.0 0,0 15.33370458882959,-296.5646628607692 A 668.8513869580163,668.8513869580163 0.0 0,0 43.92081439928168,-297.8948452435819 A 668.8513869576608,668.8513869576608 0.0 0,0 67.49408588067648,-299.9171905700952 L 65.99999999999999,-314.33375625230826 A 654.3576069581501,654.3576069581501 0.0 0,1 22.84120926769303,-311.2989082211857 A 654.3576069582926,654.3576069582926 0.0 0,1 -1.6963083693476904,-310.847769360676 A 654.35760695825,654.35760695825 0.0 0,1 -26.233485463467645,-311.31706490855885 A 654.3576069576945,654.3576069576945 0.0 0,1 -68.90841746850417,-314.33375625230826" fill="rgb(227,175,186)" stroke="rgb(51,51,51)" stroke-width="0.75"/>
  <path d="M -154.7017796258914,26.835605467494986 A 103.22182075060343,103.22182075060343 0.0 0,1 -41.06307788210775,26.835605467494986 L -83.8824120873329,-280.5619793910108 L -111.88244542066623,-280.5619793910108 L -154.7017796258914,26.835605467494986" fill="rgb(227,175,186)" stroke="rgb(51,51,51)" stroke-width="0.75"/>
  <path d="M 0.0,-315.85481683279147 L 24.631350370666134,-315.85481683279147 L 28.103500370666122,-355.6675670487009 L 31.575650370666118,-315.85481683279147 L 74.51854999999998,-315.85481683279147 L 77.99069999999998,-360.25911739832304 L 38.34331686800556,-365.703967398323 L 77.99069999999998,-371.148817398323 L 73.37998626482923,-385.0192912301606 C 49.408775074936784,-388.66369414784884 51.3300692900981,-408.74644204026816 51.72644031536697,-441.1350112301606 L 40.85298736346399,-445.2762437106468 L 0.0,-319.87229900869755 L 0.0,-315.85481683279147" fill="rgb(227,175,186)" stroke="rgb(51,51,51)" stroke-width="0.75"/>
  <path d="M 0.0,-315.85481683279147 L 0.0,-319.87229900869755 L -40.85298736346399,-445.2762437106468 L -51.72644031536697,-441.1350112301606 C -51.330069290098095,-408.74644204026816 -49.40877507493677,-388.66369414784884 -73.37998626482921,-385.0192912301606 L -77.99069999999998,-371.148817398323 L -38.34331686800556,-365.703967398323 L -77.99069999999998,-360.25911739832304 L -74.51854999999998,-315.85481683279147 L -31.57565037066611,-315.85481683279147 L -28.10350037066612,-355.6675670487009 L -24.631350370666134,-315.85481683279147 L 0.0,-315.85481683279147" fill="rgb(227,175,186)" stroke="rgb(51,51,51)" stroke-width="0.75"/>
  <path d="M 145.9131845476088,26.8356054674951 A 103.22182075060343,103.22182075060343 0.0 0,1 259.55188629139246,26.8356054674951 L 216.7325520861673,-280.5619793910107 L 211.88088541950066,-280.5619793910107 L 188.73251875283398,-280.5619793910107 L 145.9131845476088,26.8356054674951" fill="rgb(227,175,186)" stroke="rgb(51,51,51)" stroke-width="0.75"/>
  <path d="M 24.0,-484.83540000000005 L 12.0,-484.83540000000005 L 12.0,-352.9448547614239 Q 46.77810904771522,-442.8682364284272 24.0,-484.83540000000005" fill="rgb(227,175,186)" stroke="rgb(51,51,51)" stroke-width="0.75"/>
  <path d="M -24.0,-484.83540000000005 Q -46.77810904771522,-442.8682364284272 -12.0,-352.9448547614239 L -12.0,-484.83540000000005 L -24.0,-484.83540000000005" fill="rgb(227,175,186)" stroke="rgb(51,51,51)" stroke-width="0.75"/>
  <path d="M -68.98438832624883,26.8356054674951 A 103.22182075060343,103.22182075060343 0.0 0,1 44.65431341753481,26.8356054674951 L 1.834979212309662,-280.5619793910107 L -26.165054121023672,-280.5619793910107 L -68.98438832624883,26.8356054674951" fill="rgb(227,175,186)" stroke="rgb(51,51,51)" stroke-width="0.75"/>
  <path d="M 49.73773308400625,26.8356054674951 A 103.22182075060343,103.22182075060343 0.0 0,1 163.3764348277899,26.8356054674951 L 120.55710062256475,-280.5619793910107 L 92.55706728923141,-280.5619793910107 L 49.73773308400625,26.8356054674951" fill="rgb(227,175,186)" stroke="rgb(51,51,51)" stroke-width="0.75"/>
  <path d="M 472.250603072744,26.835605467494986 A 103.22182075060343,103.22182075060343 0.0 0,1 585.8893048165277,26.835605467494986 L 543.0699706113026,-280.5619793910108 L 515.0699372779692,-280.5619793910108 L 472.250603072744,26.835605467494986" fill="rgb(227,175,186)" stroke="rgb(51,51,51)" stroke-width="0.75"/>
  <path d="M 357.9059928670531,26.835605467494986 A 103.22182075060343,103.22182075060343 0.0 0,1 471.5446946108367,26.835605467494986 L 428.7253604056116,-280.5619793910108 L 400.7253270722782,-280.5619793910108 L 357.9059928670531,26.835605467494986" fill="rgb(227,175,186)" stroke="rgb(51,51,51)" stroke-width="0.75"/>
  <path d="M 581.0305956935839,26.835605467494986 A 103.22182075060343,103.22182075060343 0.0 0,1 694.6692974373675,26.835605467494986 L 651.8499632321424,-280.5619793910108 L 623.849929898809,-280.5619793910108 L 581.0305956935839,26.835605467494986" fill="rgb(227,175,186)" stroke="rgb(51,51,51)" stroke-width="0.75"/>
  <path d="M 458.8061997736715,-334.2472883300463 L 458.8061997736715,-434.58124295822347 A 78.62684629108907,78.62684629108907 0.0 0,0 499.65918713713546,-446.0276279442335 L 510.9674997736715,-441.7207739226822 C 509.1173307736715,-409.91372392268227 506.3237577736715,-390.2671154226822 529.7134497736715,-385.60505392268226 L 529.7134497736715,-371.90020258141885 L 527.6332247736715,-327.4959025814188 Q 515.160022232119,-330.0445039714783 502.6308207659158,-331.6774257874723 L 503.8362306406347,-366.2230079672311 L 497.46179024929745,-332.2492420470123 Q 490.787652869285,-332.9409307178678 484.101879244341,-333.39316886729034 L 483.8269989790886,-371.7995253721865 L 478.91086220725094,-333.708117175823 Q 468.8716316717017,-334.24728843262557 458.8061997736715,-334.2472883300463" fill="rgb(227,175,186)" stroke="rgb(51,51,51)" stroke-width="0.75"/>
  <path d="M 458.8061997736715,-334.2472883300463 Q 448.74076787564127,-334.24728843262557 438.70153734009205,-333.708117175823 L 433.7854005682544,-371.7995253721865 L 433.510520303002,-333.39316886729034 Q 426.824746678058,-332.9409307178678 420.15060929804554,-332.2492420470123 L 413.7761689067083,-366.2230079672311 L 414.9815787814272,-331.6774257874723 Q 402.452377315224,-330.0445039714783 389.9791747736715,-327.4959025814188 L 387.89894977367146,-371.90020258141885 L 387.89894977367146,-385.60505392268226 C 411.2886417736715,-390.2671154226822 408.4950687736715,-409.91372392268227 406.6448997736715,-441.7207739226822 L 417.9532124102075,-446.0276279442335 A 78.62684629108907,78.62684629108907 0.0 0,0 458.8061997736715,-434.58124295822347 L 458.8061997736715,-334.2472883300463" fill="rgb(227,175,186)" stroke="rgb(51,51,51)" stroke-width="0.75"/>
  <path d="M 400.9594062829674,-314.33375625230826 A 181.62092333829867,181.62092333829867 0.0 0,0 425.4051461721085,-308.03599977295937 A 181.6209233383808,181.6209233383808 0.0 0,0 438.62186028508364,-306.0951908956574 A 181.62092333832044,181.62092333832044 0.0 0,0 458.6249025972413,-305.01712452058865 A 181.62092333832067,181.62092333832067 0.0 0,0 478.62499971460227,-306.148514880789 A 181.6209233383829,181.6209233383829 0.0 0,0 491.8364926908521,-308.12455242619 A 181.6209233383372,181.6209233383372 0.0 0,0 515.8061997736716,-314.33375625230826 L 520.3887228881996,-300.583478415362 A 196.11470333852918,196.11470333852918 0.0 0,1 515.397092811067,-298.9936816175602 A 196.11470333830164,196.11470333830164 0.0 0,1 485.9067179471872,-292.46422460701814 A 196.11470333830204,196.11470333830204 0.0 0,1 455.76346032998663,-290.5406761444752 A 196.11470333830175,196.11470333830175 0.0 0,1 425.68233499585045,-293.268663882105 A 196.11470333830135,196.11470333830135 0.0 0,1 396.3768831684393,-300.583478415362 L 400.9594062829674,-314.33375625230826" fill="rgb(227,175,186)" stroke="rgb(51,51,51)" stroke-width="0.75"/>
  <path d="M 604.3801276836408,-357.961745625376 L 574.0610176368796,-327.21835699958433 L 512.7629369914679,-387.6704846217268 C 513.45073422208,-407.58860161608595 490.8449260633264,-428.8517840334141 510.8686140985209,-450.18274004913076 L 604.3801276836408,-357.961745625376" fill="rgb(227,175,186)" stroke="rgb(51,51,51)" stroke-width="0.75"/>
  <path d="M 313.2322718637022,-357.961745625376 L 406.7437854488221,-450.18274004913076 C 426.7674734840166,-428.8517840334141 404.161665325263,-407.58860161608595 404.8494625558751,-387.6704846217268 L 343.5513819104634,-327.21835699958433 L 313.2322718637022,-357.961745625376" fill="rgb(227,175,186)" stroke="rgb(51,51,51)" stroke-width="0.75"/>
  <path d="M 648.0605132559505,-314.8841775286445 L 630.7091310312559,-297.2899840940181 L 591.3007620268812,-336.154492205028 L 608.6521442515759,-353.7486856396544 L 648.0605132559505,-314.8841775286445" fill="rgb(227,175,186)" stroke="rgb(51,51,51)" stroke-width="0.75"/>
  <path d="M 269.55188629139246,-314.8841775286445 L 308.96025529576707,-353.7486856396544 L 326.3116375204618,-336.154492205028 L 286.9032685160871,-297.2899840940181 L 269.55188629139246,-314.8841775286445" fill="rgb(227,175,186)" stroke="rgb(51,51,51)" stroke-width="0.75"/>
  <path d="M 291.4998789905428,26.835605467494986 A 103.22182075060343,103.22182075060343 0.0 0,1 405.1385807343264,26.835605467494986 L 362.3192465291013,-280.5619793910108 L 334.31921319576793,-280.5619793910108 L 291.4998789905428,26.835605467494986" fill="rgb(227,175,186)" stroke="rgb(51,51,51)" stroke-width="0.75"/>
  <path d="M 501.7647689707024,-472.83540000000005 L 458.8061997736715,-472.83540000000005 L 458.8061997736715,-484.83540000000005 L 501.7647689707024,-484.83540000000005 L 501.7647689707024,-472.83540000000005" fill="rgb(227,175,186)" stroke="rgb(51,51,51)" stroke-width="0.75"/>
  <path d="M 415.8476305766406,-472.83540000000005 L 415.8476305766406,-484.83540000000005 L 458.8061997736715,-484.83540000000005 L 458.8061997736715,-472.83540000000005 L 415.8476305766406,-472.83540000000005" fill="rgb(227,175,186)" stroke="rgb(51,51,51)" stroke-width="0.75"/>
  <path d="M 633.3466032273286,26.835605467494986 A 103.22182075060343,103.22182075060343 0.0 0,1 746.9853049711123,26.835605467494986 L 704.1659707658871,-280.5619793910108 L 676.1659374325538,-280.5619793910108 L 633.3466032273286,26.835605467494986" fill="rgb(227,175,186)" stroke="rgb(51,51,51)" stroke-width="0.75"/>
</svg>
