<?xml version="1.0" encoding="utf-8" ?>
<svg xmlns="http://www.w3.org/2000/svg" xmlns:ev="http://www.w3.org/2001/xml-events" xmlns:xlink="http://www.w3.org/1999/xlink" baseProfile="full" height="532.6987177975506" version="1.1" viewBox="-178.91090255476254 -543.8801925525877 711.3931453647107 532.6987177975506" width="711.3931453647107">
  <defs/>
  <path d="M -45.40328626802426,-268.3452013400642 L -121.80763607277453,-268.3452013400642 A 133.37358477414347,133.37358477414347 0.0 0,0 121.40434980475027,-268.3452013400642 L 45.0,-268.3452013400642 A 45.20164313401216,45.20164313401216 0.0 0,1 -45.40328626802426,-268.3452013400642" fill="rgb(227,175,186)" stroke="rgb(51,51,51)" stroke-width="0.75"/>
  <path d="M -128.93944103811592,-228.84477675199727 L -143.865483217894,-230.33248130851555 A 141.59389441802858,141.59389441802858 0.0 1,0 137.92604217977805,-230.33248130851555 L 123.00000000000006,-228.84477675199727 A 126.59389441802861,126.59389441802861 0.0 1,1 -128.93944103811592,-228.84477675199727" fill="rgb(227,175,186)" stroke="rgb(51,51,51)" stroke-width="0.75"/>
  <path d="M -143.38314532186948,-216.0481744426749 L -158.30918750164756,-217.5358789991932 A 157.89612505608832,157.89612505608832 0.0 1,0 155.92604217977805,-217.5358789991932 L 141.0,-216.0481744426749 A 142.8961250560885,142.8961250560885 0.0 1,1 -143.38314532186948,-216.0481744426749" fill="rgb(227,175,186)" stroke="rgb(51,51,51)" stroke-width="0.75"/>
  <path d="M -161.1252324271698,-203.33397254042592 L -176.05127460694789,-204.8216770969442 A 174.34828634117767,174.34828634117767 0.0 1,0 170.92604217977814,-204.8216770969442 L 156.00000000000003,-203.33397254042592 A 159.34828634117756,159.34828634117756 0.0 1,1 -161.1252324271698,-203.33397254042592" fill="rgb(227,175,186)" stroke="rgb(51,51,51)" stroke-width="0.75"/>
  <path d="M -74.68410000000002,-260.74437977305814 L 74.68410000000002,-260.74437977305814 L 74.68410000000002,-272.1196597730581 L 27.57066934775112,-272.1196597730581 L -0.2641371345246881,-272.1196597730581 L -28.098943616800497,-272.1196597730581 L -74.68410000000002,-272.1196597730581 L -74.68410000000002,-260.74437977305814" fill="rgb(227,175,186)" stroke="rgb(51,51,51)" stroke-width="0.75"/>
  <path d="M 0.0,-274.0265320874067 L 27.933599947647032,-274.0265320874067 L 32.78279994764702,-302.94277029641995 L 37.631999947647024,-274.0265320874067 L 84.38250000000001,-274.0265320874067 L 89.2317,-306.6043321419354 L 44.216859488557276,-315.9442321419354 L 89.2317,-325.2841321419354 L 79.87588886466327,-344.5781317346993 C 52.14621777487371,-345.3661223275676 51.52102514018939,-368.43944864490976 47.444273415715514,-405.2734117346993 L 31.589609999999997,-411.68210418731917 A 32.347631868149236,32.347631868149236 0.0 0,1 0.0,-372.37273205360384 L 0.0,-274.0265320874067" fill="rgb(227,175,186)" stroke="rgb(51,51,51)" stroke-width="0.75"/>
  <path d="M 0.0,-274.0265320874067 L 0.0,-372.37273205360384 A 32.347631868149236,32.347631868149236 0.0 0,1 -31.58961,-411.68210418731917 L -47.444273415715514,-405.2734117346993 C -51.52102514018939,-368.43944864490976 -52.14621777487371,-345.3661223275676 -79.87588886466327,-344.5781317346993 L -89.2317,-325.2841321419354 L -44.216859488557276,-315.9442321419354 L -89.2317,-306.6043321419354 L -84.38250000000001,-274.0265320874067 L -37.631999947647024,-274.0265320874067 L -32.78279994764703,-302.94277029641995 L -27.933599947647032,-274.0265320874067 L 0.0,-274.0265320874067" fill="rgb(227,175,186)" stroke="rgb(51,51,51)" stroke-width="0.75"/>
  <path d="M 358.69657268235534,-301.7192428300126 L 358.69657268235534,-377.8539475683479 A 31.7880704097752,31.7880704097752 0.0 0,0 390.28618268235533,-413.1885600157602 L 406.87222268235536,-406.48423239809875 C 407.78624168235535,-370.91536239809875 406.51379468235535,-348.79085589809876 432.97837268235537,-345.7889523980988 L 432.97837268235537,-326.79058745870964 L 432.97837268235537,-294.2127874587096 Q 416.69871102799993,-297.5216056337404 400.3380213902005,-299.37190879715877 L 400.8530901128334,-320.279717125199 L 396.87789900602235,-299.74682642429104 Q 389.95658459203275,-300.46398368250186 383.02078398326853,-300.92038741062913 L 382.69662976638256,-324.1560728579219 L 379.5468834789493,-301.1325793678658 Q 369.13802416645115,-301.7192429237151 358.69657268235534,-301.7192428300126" fill="rgb(227,175,186)" stroke="rgb(51,51,51)" stroke-width="0.75"/>
  <path d="M 358.69657268235534,-301.7192428300126 Q 348.25512119825953,-301.7192429237151 337.84626188576135,-301.1325793678658 L 334.6965155983281,-324.1560728579219 L 334.37236138144215,-300.92038741062913 Q 327.4365607726779,-300.46398368250186 320.51524635868833,-299.74682642429104 L 316.5400552518773,-320.279717125199 L 317.0551239745102,-299.37190879715877 Q 300.69443433671074,-297.5216056337404 284.4147726823553,-294.2127874587096 L 284.4147726823553,-326.79058745870964 L 284.4147726823553,-345.7889523980988 C 310.8793506823553,-348.79085589809876 309.6069036823553,-370.91536239809875 310.5209226823553,-406.48423239809875 L 327.10696268235534,-413.1885600157602 A 31.7880704097752,31.7880704097752 0.0 0,0 358.69657268235534,-377.8539475683479 L 358.69657268235534,-301.7192428300126" fill="rgb(227,175,186)" stroke="rgb(51,51,51)" stroke-width="0.75"/>
  <path d="M 291.3755226823553,-260.74437977305814 L 291.3755226823553,-272.1196597730581 L 324.314821529543,-272.1196597730581 L 338.17317179457166,-272.1196597730581 L 358.96070981688007,-272.1196597730581 L 379.7482478391885,-272.1196597730581 L 393.60659810421714,-272.1196597730581 L 426.01762268235535,-272.1196597730581 L 426.01762268235535,-260.74437977305814 L 291.3755226823553,-260.74437977305814" fill="rgb(227,175,186)" stroke="rgb(51,51,51)" stroke-width="0.75"/>
  <path d="M 313.2932864143311,-268.3452013400642 A 45.20164313401216,45.20164313401216 0.0 0,0 403.69657268235534,-268.3452013400642 L 480.1009224871056,-268.3452013400642 A 133.37358477414335,133.37358477414335 0.0 1,1 236.8889366095808,-268.3452013400642 L 313.2932864143311,-268.3452013400642" fill="rgb(227,175,186)" stroke="rgb(51,51,51)" stroke-width="0.75"/>
  <path d="M 229.75713164423942,-228.84477675199727 A 126.59389441802861,126.59389441802861 0.0 1,0 481.6965726823554,-228.84477675199727 L 496.6226148621334,-230.33248130851555 A 141.59389441802858,141.59389441802858 0.0 1,1 214.83108946446134,-230.33248130851555 L 229.75713164423942,-228.84477675199727" fill="rgb(227,175,186)" stroke="rgb(51,51,51)" stroke-width="0.75"/>
  <path d="M 215.31342736048586,-216.0481744426749 A 142.8961250560885,142.8961250560885 0.0 1,0 499.69657268235534,-216.0481744426749 L 514.6226148621333,-217.5358789991932 A 157.89612505608832,157.89612505608832 0.0 1,1 200.38738518070778,-217.5358789991932 L 215.31342736048586,-216.0481744426749" fill="rgb(227,175,186)" stroke="rgb(51,51,51)" stroke-width="0.75"/>
  <path d="M 197.57134025518553,-203.33397254042592 A 159.34828634117756,159.34828634117756 0.0 1,0 514.6965726823554,-203.33397254042592 L 529.6226148621334,-204.8216770969442 A 174.34828634117767,174.34828634117767 0.0 1,1 182.64529807540745,-204.8216770969442 L 197.57134025518553,-203.33397254042592" fill="rgb(227,175,186)" stroke="rgb(51,51,51)" stroke-width="0.75"/>
  <path d="M 391.8757926823553,-416.78187510517535 Q 424.0989258060615,-535.8142950631052 353.9682606823553,-541.8801925525877 L 322.3786506823553,-541.8801925525877 L 327.5655102328864,-411.27322896102726 C 350.48316901109627,-412.52145337052264 335.8759420287381,-452.52611803544727 358.8594354120527,-453.71237815891516 C 380.10250697155465,-452.71886545877294 370.62919924084264,-417.7718849539905 391.8757926823553,-416.78187510517535" fill="rgb(227,175,186)" stroke="rgb(51,51,51)" stroke-width="0.75"/>
  <path d="M 325.51735268235535,-416.78187510517535 C 346.76394612386804,-417.7718849539905 337.29063839315603,-452.71886545877294 358.533709952658,-453.71237815891516 C 381.51720333597257,-452.52611803544727 366.9099763536144,-412.52145337052264 389.82763513182425,-411.27322896102726 L 395.01449468235535,-541.8801925525877 L 363.42488468235535,-541.8801925525877 Q 293.29421955864916,-535.8142950631052 325.51735268235535,-416.78187510517535" fill="rgb(227,175,186)" stroke="rgb(51,51,51)" stroke-width="0.75"/>
</svg>
