<?xml version="1.0" encoding="utf-8" ?>
<svg xmlns="http://www.w3.org/2000/svg" xmlns:ev="http://www.w3.org/2001/xml-events" xmlns:xlink="http://www.w3.org/1999/xlink" baseProfile="full" height="252.18029968340727" version="1.1" viewBox="-103.32389559543712 -333.94988 427.89208584317964 252.18029968340727" width="427.89208584317964">
  <defs/>
  <path d="M -80.29091693235665,-318.2226 L 0.0,-318.2226 L 80.29091693235665,-318.2226 L 80.29091693235665,-331.94988 L -80.29091693235665,-331.94988 L -80.29091693235665,-318.2226" fill="rgb(227,175,186)" stroke="rgb(51,51,51)" stroke-width="0.75"/>
  <path d="M 86.74429465230538,-87.86422808472696 Q 99.6221467976744,-214.30192097297436 99.62214732615269,-262.2761223186574 Q 99.62214762012005,-282.7734792697568 101.32389559543711,-303.2226 L 21.78474732615268,-303.2226 L 21.78474732615268,-280.70203727526155 Q 21.78477651509318,-228.0566283705631 2.325397326152679,-228.05662231865736 Q 12.13811527025548,-186.55187298200795 21.203249999999993,-87.86422808472696 L 86.74429465230538,-87.86422808472696" fill="rgb(227,175,186)" stroke="rgb(51,51,51)" stroke-width="0.75"/>
  <path d="M -86.74429465230538,-87.86422808472696 L -21.203249999999997,-87.86422808472696 Q -12.138115270255497,-186.55187298200795 -2.3253973261526966,-228.05662231865736 Q -21.784776515093185,-228.0566283705631 -21.784747326152697,-280.70203727526155 L -21.784747326152697,-303.2226 L -101.32389559543712,-303.2226 Q -99.62214762012006,-282.7734792697568 -99.6221473261527,-262.2761223186574 Q -99.62214679767442,-214.30192097297433 -86.74429465230538,-87.86422808472696" fill="rgb(227,175,186)" stroke="rgb(51,51,51)" stroke-width="0.75"/>
  <path d="M 309.6903375738952,-83.76958031659274 L 237.89879292158983,-83.76958031659274 Q 228.83365819184533,-182.4572252138737 219.02094024774252,-223.9619745505231 Q 236.50665967778698,-223.96195542305395 236.5065902477425,-278.44998100278775 L 236.5065902477425,-303.22260000000006 L 258.4470153435224,-303.22260000000006 L 260.533532502352,-267.2501611826299 L 262.6200496611816,-303.22260000000006 L 277.2469991490574,-303.22260000000006 L 279.33351630788695,-270.86018241589534 L 281.4200334667165,-303.22260000000006 L 319.7230067374411,-303.22260000000006 Q 322.5681760264601,-280.7469665273652 322.5681902477425,-258.18147455052315 Q 322.56818971926424,-210.20727320484008 309.6903375738952,-83.76958031659274" fill="rgb(227,175,186)" stroke="rgb(51,51,51)" stroke-width="0.75"/>
  <path d="M 124.20174826928444,-83.76958031659274 Q 111.3238961239154,-210.20727320484008 111.32389559543712,-258.18147455052315 Q 111.32390981671954,-280.7469665273652 114.16907910573853,-303.22260000000006 L 152.4720523764631,-303.22260000000006 L 154.55856953529266,-270.86018241589534 L 156.64508669412223,-303.22260000000006 L 171.27203618199806,-303.22260000000006 L 173.35855334082763,-267.2501611826299 L 175.4450704996572,-303.22260000000006 L 197.38549559543713,-303.22260000000006 L 197.38549559543713,-278.44998100278775 Q 197.38542616539266,-223.96195542305395 214.8711455954371,-223.9619745505231 Q 205.0584276513343,-182.4572252138737 195.99329292158978,-83.76958031659274 L 124.20174826928444,-83.76958031659274" fill="rgb(227,175,186)" stroke="rgb(51,51,51)" stroke-width="0.75"/>
  <path d="M 146.00881373028173,-318.2226 L 146.00881373028173,-331.94988 L 287.8832721128979,-331.94988 L 287.8832721128979,-318.2226 L 251.59244575132425,-318.2226 L 237.73388494686245,-318.2226 L 216.9460429215898,-318.2226 L 196.15820089631714,-318.2226 L 182.29964009185534,-318.2226 L 146.00881373028173,-318.2226" fill="rgb(227,175,186)" stroke="rgb(51,51,51)" stroke-width="0.75"/>
</svg>
